<mxfile host="65bd71144e">
    <diagram id="0UlRqv2EKYuRSKTWBCr5" name="Page-1">
        <mxGraphModel dx="1038" dy="617" grid="1" gridSize="10" guides="1" tooltips="1" connect="1" arrows="1" fold="1" page="1" pageScale="1" pageWidth="1169" pageHeight="827" math="0" shadow="0">
            <root>
                <mxCell id="0"/>
                <mxCell id="1" parent="0"/>
                <mxCell id="1ungzyrmgM4HCY8xMzl8-1" value="" style="rounded=1;whiteSpace=wrap;html=1;" parent="1" vertex="1">
                    <mxGeometry x="80" y="160" width="240" height="380" as="geometry"/>
                </mxCell>
                <mxCell id="1ungzyrmgM4HCY8xMzl8-2" value="Headers" style="rounded=0;whiteSpace=wrap;html=1;" parent="1" vertex="1">
                    <mxGeometry x="120" y="190" width="160" height="40" as="geometry"/>
                </mxCell>
                <mxCell id="1ungzyrmgM4HCY8xMzl8-3" value="Params(id)" style="rounded=0;whiteSpace=wrap;html=1;" parent="1" vertex="1">
                    <mxGeometry x="120" y="470" width="160" height="40" as="geometry"/>
                </mxCell>
                <mxCell id="1ungzyrmgM4HCY8xMzl8-4" value="Body" style="rounded=0;whiteSpace=wrap;html=1;" parent="1" vertex="1">
                    <mxGeometry x="120" y="240" width="160" height="220" as="geometry"/>
                </mxCell>
                <mxCell id="1ungzyrmgM4HCY8xMzl8-14" style="edgeStyle=orthogonalEdgeStyle;rounded=0;orthogonalLoop=1;jettySize=auto;html=1;exitX=1;exitY=0.25;exitDx=0;exitDy=0;entryX=0;entryY=0.5;entryDx=0;entryDy=0;strokeWidth=1;endArrow=open;endFill=0;endSize=15;" parent="1" source="1ungzyrmgM4HCY8xMzl8-5" target="1ungzyrmgM4HCY8xMzl8-10" edge="1">
                    <mxGeometry relative="1" as="geometry"/>
                </mxCell>
                <mxCell id="1ungzyrmgM4HCY8xMzl8-5" value="{&lt;br&gt;repo.GetStageById&lt;br&gt;stage.document = document&lt;br&gt;return stage&lt;br&gt;}" style="rounded=0;whiteSpace=wrap;html=1;align=left;" parent="1" vertex="1">
                    <mxGeometry x="400" y="200" width="260" height="320" as="geometry"/>
                </mxCell>
                <mxCell id="1ungzyrmgM4HCY8xMzl8-6" value="" style="shape=flexArrow;endArrow=classic;startArrow=classic;html=1;rounded=0;" parent="1" edge="1">
                    <mxGeometry width="100" height="100" relative="1" as="geometry">
                        <mxPoint x="80" y="130" as="sourcePoint"/>
                        <mxPoint x="320" y="130" as="targetPoint"/>
                    </mxGeometry>
                </mxCell>
                <mxCell id="1ungzyrmgM4HCY8xMzl8-7" value="GET GetStageById" style="text;html=1;strokeColor=none;fillColor=none;align=center;verticalAlign=middle;whiteSpace=wrap;rounded=0;" parent="1" vertex="1">
                    <mxGeometry x="85" y="80" width="220" height="30" as="geometry"/>
                </mxCell>
                <mxCell id="1ungzyrmgM4HCY8xMzl8-8" value="&lt;span style=&quot;text-align: left&quot;&gt;GetStageById(String id)&lt;/span&gt;" style="text;html=1;strokeColor=none;fillColor=none;align=center;verticalAlign=middle;whiteSpace=wrap;rounded=0;" parent="1" vertex="1">
                    <mxGeometry x="400" y="170" width="220" height="30" as="geometry"/>
                </mxCell>
                <mxCell id="1ungzyrmgM4HCY8xMzl8-13" style="edgeStyle=orthogonalEdgeStyle;rounded=0;orthogonalLoop=1;jettySize=auto;html=1;entryX=0;entryY=0.5;entryDx=0;entryDy=0;strokeWidth=1;endArrow=open;endFill=0;endSize=15;" parent="1" source="1ungzyrmgM4HCY8xMzl8-10" target="1ungzyrmgM4HCY8xMzl8-12" edge="1">
                    <mxGeometry relative="1" as="geometry"/>
                </mxCell>
                <mxCell id="1ungzyrmgM4HCY8xMzl8-10" value="HTTP" style="rounded=0;whiteSpace=wrap;html=1;" parent="1" vertex="1">
                    <mxGeometry x="750" y="250" width="120" height="60" as="geometry"/>
                </mxCell>
                <mxCell id="1ungzyrmgM4HCY8xMzl8-11" value="MongoDB Atlas" style="text;html=1;strokeColor=none;fillColor=none;align=center;verticalAlign=middle;whiteSpace=wrap;rounded=0;" parent="1" vertex="1">
                    <mxGeometry x="750" y="320" width="120" height="30" as="geometry"/>
                </mxCell>
                <mxCell id="1ungzyrmgM4HCY8xMzl8-12" value="GetStageById" style="rounded=0;whiteSpace=wrap;html=1;" parent="1" vertex="1">
                    <mxGeometry x="970" y="250" width="180" height="60" as="geometry"/>
                </mxCell>
                <mxCell id="1ungzyrmgM4HCY8xMzl8-15" value="Actor" style="shape=umlActor;verticalLabelPosition=bottom;verticalAlign=top;html=1;outlineConnect=0;" parent="1" vertex="1">
                    <mxGeometry x="30" y="80" width="30" height="60" as="geometry"/>
                </mxCell>
                <mxCell id="1ungzyrmgM4HCY8xMzl8-23" value="" style="rounded=1;whiteSpace=wrap;html=1;" parent="1" vertex="1">
                    <mxGeometry x="80" y="680" width="240" height="380" as="geometry"/>
                </mxCell>
                <mxCell id="1ungzyrmgM4HCY8xMzl8-24" value="Headers" style="rounded=0;whiteSpace=wrap;html=1;" parent="1" vertex="1">
                    <mxGeometry x="120" y="710" width="160" height="40" as="geometry"/>
                </mxCell>
                <mxCell id="1ungzyrmgM4HCY8xMzl8-25" value="Params" style="rounded=0;whiteSpace=wrap;html=1;" parent="1" vertex="1">
                    <mxGeometry x="120" y="990" width="160" height="40" as="geometry"/>
                </mxCell>
                <mxCell id="1ungzyrmgM4HCY8xMzl8-26" value="Body" style="rounded=0;whiteSpace=wrap;html=1;" parent="1" vertex="1">
                    <mxGeometry x="120" y="760" width="160" height="220" as="geometry"/>
                </mxCell>
                <mxCell id="1ungzyrmgM4HCY8xMzl8-27" style="edgeStyle=orthogonalEdgeStyle;rounded=0;orthogonalLoop=1;jettySize=auto;html=1;exitX=1;exitY=0.25;exitDx=0;exitDy=0;entryX=0;entryY=0.5;entryDx=0;entryDy=0;strokeWidth=1;endArrow=open;endFill=0;endSize=15;" parent="1" source="1ungzyrmgM4HCY8xMzl8-28" target="1ungzyrmgM4HCY8xMzl8-33" edge="1">
                    <mxGeometry relative="1" as="geometry"/>
                </mxCell>
                <mxCell id="1ungzyrmgM4HCY8xMzl8-28" value="&lt;br style=&quot;text-align: center&quot;&gt;&lt;span style=&quot;text-align: center&quot;&gt;{&lt;/span&gt;&lt;br style=&quot;text-align: center&quot;&gt;&lt;span style=&quot;text-align: center&quot;&gt;stages= repo.getAll()&lt;/span&gt;&lt;br style=&quot;text-align: center&quot;&gt;&lt;span style=&quot;text-align: center&quot;&gt;if(stages != null){&lt;/span&gt;&lt;br style=&quot;text-align: center&quot;&gt;&lt;span style=&quot;text-align: center&quot;&gt;return stages&lt;/span&gt;&lt;br style=&quot;text-align: center&quot;&gt;&lt;span style=&quot;text-align: center&quot;&gt;}else{&lt;/span&gt;&lt;br style=&quot;text-align: center&quot;&gt;&lt;span style=&quot;text-align: center&quot;&gt;return NotFound()&lt;/span&gt;&lt;br style=&quot;text-align: center&quot;&gt;&lt;span style=&quot;text-align: center&quot;&gt;}&lt;/span&gt;&lt;br style=&quot;text-align: center&quot;&gt;&lt;span style=&quot;text-align: center&quot;&gt;}&lt;/span&gt;" style="rounded=0;whiteSpace=wrap;html=1;align=left;" parent="1" vertex="1">
                    <mxGeometry x="400" y="720" width="260" height="320" as="geometry"/>
                </mxCell>
                <mxCell id="1ungzyrmgM4HCY8xMzl8-29" value="" style="shape=flexArrow;endArrow=classic;startArrow=classic;html=1;rounded=0;" parent="1" edge="1">
                    <mxGeometry width="100" height="100" relative="1" as="geometry">
                        <mxPoint x="80" y="650" as="sourcePoint"/>
                        <mxPoint x="320" y="650" as="targetPoint"/>
                    </mxGeometry>
                </mxCell>
                <mxCell id="1ungzyrmgM4HCY8xMzl8-30" value="GET GetAllStage" style="text;html=1;strokeColor=none;fillColor=none;align=center;verticalAlign=middle;whiteSpace=wrap;rounded=0;" parent="1" vertex="1">
                    <mxGeometry x="85" y="600" width="220" height="30" as="geometry"/>
                </mxCell>
                <mxCell id="1ungzyrmgM4HCY8xMzl8-31" value="GetAllStage" style="text;html=1;strokeColor=none;fillColor=none;align=center;verticalAlign=middle;whiteSpace=wrap;rounded=0;" parent="1" vertex="1">
                    <mxGeometry x="400" y="690" width="220" height="30" as="geometry"/>
                </mxCell>
                <mxCell id="1ungzyrmgM4HCY8xMzl8-32" style="edgeStyle=orthogonalEdgeStyle;rounded=0;orthogonalLoop=1;jettySize=auto;html=1;entryX=0;entryY=0.5;entryDx=0;entryDy=0;strokeWidth=1;endArrow=open;endFill=0;endSize=15;" parent="1" source="1ungzyrmgM4HCY8xMzl8-33" target="1ungzyrmgM4HCY8xMzl8-35" edge="1">
                    <mxGeometry relative="1" as="geometry"/>
                </mxCell>
                <mxCell id="1ungzyrmgM4HCY8xMzl8-33" value="HTTP" style="rounded=0;whiteSpace=wrap;html=1;" parent="1" vertex="1">
                    <mxGeometry x="750" y="770" width="120" height="60" as="geometry"/>
                </mxCell>
                <mxCell id="1ungzyrmgM4HCY8xMzl8-34" value="MongoDB Atlas" style="text;html=1;strokeColor=none;fillColor=none;align=center;verticalAlign=middle;whiteSpace=wrap;rounded=0;" parent="1" vertex="1">
                    <mxGeometry x="750" y="840" width="120" height="30" as="geometry"/>
                </mxCell>
                <mxCell id="1ungzyrmgM4HCY8xMzl8-35" value="GetStageById" style="rounded=0;whiteSpace=wrap;html=1;" parent="1" vertex="1">
                    <mxGeometry x="970" y="770" width="180" height="60" as="geometry"/>
                </mxCell>
                <mxCell id="1ungzyrmgM4HCY8xMzl8-36" value="Actor" style="shape=umlActor;verticalLabelPosition=bottom;verticalAlign=top;html=1;outlineConnect=0;" parent="1" vertex="1">
                    <mxGeometry x="30" y="600" width="30" height="60" as="geometry"/>
                </mxCell>
                <mxCell id="1ungzyrmgM4HCY8xMzl8-44" value="" style="rounded=1;whiteSpace=wrap;html=1;" parent="1" vertex="1">
                    <mxGeometry x="80" y="1230" width="240" height="380" as="geometry"/>
                </mxCell>
                <mxCell id="1ungzyrmgM4HCY8xMzl8-45" value="Headers" style="rounded=0;whiteSpace=wrap;html=1;" parent="1" vertex="1">
                    <mxGeometry x="120" y="1260" width="160" height="40" as="geometry"/>
                </mxCell>
                <mxCell id="1ungzyrmgM4HCY8xMzl8-46" value="Params" style="rounded=0;whiteSpace=wrap;html=1;" parent="1" vertex="1">
                    <mxGeometry x="120" y="1540" width="160" height="40" as="geometry"/>
                </mxCell>
                <mxCell id="1ungzyrmgM4HCY8xMzl8-47" value="Body&lt;br&gt;{&lt;br&gt;name&lt;br&gt;document&lt;br&gt;}" style="rounded=0;whiteSpace=wrap;html=1;" parent="1" vertex="1">
                    <mxGeometry x="120" y="1310" width="160" height="220" as="geometry"/>
                </mxCell>
                <mxCell id="1ungzyrmgM4HCY8xMzl8-48" style="edgeStyle=orthogonalEdgeStyle;rounded=0;orthogonalLoop=1;jettySize=auto;html=1;exitX=1;exitY=0.25;exitDx=0;exitDy=0;entryX=0;entryY=0.5;entryDx=0;entryDy=0;strokeWidth=1;endArrow=open;endFill=0;endSize=15;" parent="1" source="1ungzyrmgM4HCY8xMzl8-49" target="1ungzyrmgM4HCY8xMzl8-54" edge="1">
                    <mxGeometry relative="1" as="geometry"/>
                </mxCell>
                <mxCell id="1ungzyrmgM4HCY8xMzl8-49" value="&lt;br&gt;{&lt;br&gt;stagemodel = map&amp;lt;stage&amp;gt;(stage)&lt;br&gt;repo.createStage(stageModel)&lt;br&gt;stageReadDto = map&amp;lt;stageReadDto&amp;gt;(stageModel)&lt;br&gt;return getstagebyid(stageitem.id)&lt;br&gt;}" style="rounded=0;whiteSpace=wrap;html=1;align=left;" parent="1" vertex="1">
                    <mxGeometry x="400" y="1270" width="280" height="320" as="geometry"/>
                </mxCell>
                <mxCell id="1ungzyrmgM4HCY8xMzl8-50" value="" style="shape=flexArrow;endArrow=classic;startArrow=classic;html=1;rounded=0;" parent="1" edge="1">
                    <mxGeometry width="100" height="100" relative="1" as="geometry">
                        <mxPoint x="80" y="1199.9999999999998" as="sourcePoint"/>
                        <mxPoint x="320" y="1199.9999999999998" as="targetPoint"/>
                    </mxGeometry>
                </mxCell>
                <mxCell id="1ungzyrmgM4HCY8xMzl8-51" value="POST CreateStage" style="text;html=1;strokeColor=none;fillColor=none;align=center;verticalAlign=middle;whiteSpace=wrap;rounded=0;" parent="1" vertex="1">
                    <mxGeometry x="85" y="1150" width="220" height="30" as="geometry"/>
                </mxCell>
                <mxCell id="1ungzyrmgM4HCY8xMzl8-52" value="CreateStage&lt;span style=&quot;text-align: left&quot;&gt;([fromBody] StageCreateDto stage)&lt;/span&gt;" style="text;html=1;strokeColor=none;fillColor=none;align=center;verticalAlign=middle;whiteSpace=wrap;rounded=0;" parent="1" vertex="1">
                    <mxGeometry x="400" y="1240" width="270" height="30" as="geometry"/>
                </mxCell>
                <mxCell id="1ungzyrmgM4HCY8xMzl8-53" style="edgeStyle=orthogonalEdgeStyle;rounded=0;orthogonalLoop=1;jettySize=auto;html=1;entryX=0;entryY=0.5;entryDx=0;entryDy=0;strokeWidth=1;endArrow=open;endFill=0;endSize=15;" parent="1" source="1ungzyrmgM4HCY8xMzl8-54" target="1ungzyrmgM4HCY8xMzl8-56" edge="1">
                    <mxGeometry relative="1" as="geometry"/>
                </mxCell>
                <mxCell id="1ungzyrmgM4HCY8xMzl8-54" value="HTTP" style="rounded=0;whiteSpace=wrap;html=1;" parent="1" vertex="1">
                    <mxGeometry x="750" y="1320" width="120" height="60" as="geometry"/>
                </mxCell>
                <mxCell id="1ungzyrmgM4HCY8xMzl8-55" value="MongoDB Atlas" style="text;html=1;strokeColor=none;fillColor=none;align=center;verticalAlign=middle;whiteSpace=wrap;rounded=0;" parent="1" vertex="1">
                    <mxGeometry x="750" y="1390" width="120" height="30" as="geometry"/>
                </mxCell>
                <mxCell id="1ungzyrmgM4HCY8xMzl8-56" value="CreateStage" style="rounded=0;whiteSpace=wrap;html=1;" parent="1" vertex="1">
                    <mxGeometry x="970" y="1320" width="180" height="60" as="geometry"/>
                </mxCell>
                <mxCell id="1ungzyrmgM4HCY8xMzl8-57" value="Actor" style="shape=umlActor;verticalLabelPosition=bottom;verticalAlign=top;html=1;outlineConnect=0;" parent="1" vertex="1">
                    <mxGeometry x="30" y="1150" width="30" height="60" as="geometry"/>
                </mxCell>
                <mxCell id="1ungzyrmgM4HCY8xMzl8-59" style="edgeStyle=orthogonalEdgeStyle;rounded=0;orthogonalLoop=1;jettySize=auto;html=1;entryX=0;entryY=0.5;entryDx=0;entryDy=0;strokeWidth=1;endArrow=open;endFill=0;endSize=15;" parent="1" edge="1">
                    <mxGeometry relative="1" as="geometry">
                        <mxPoint x="970" y="1510" as="targetPoint"/>
                    </mxGeometry>
                </mxCell>
                <mxCell id="1ungzyrmgM4HCY8xMzl8-62" style="edgeStyle=orthogonalEdgeStyle;rounded=0;orthogonalLoop=1;jettySize=auto;html=1;exitX=1;exitY=0.5;exitDx=0;exitDy=0;entryX=0;entryY=0.5;entryDx=0;entryDy=0;strokeWidth=1;endArrow=open;endFill=0;endSize=15;" parent="1" edge="1">
                    <mxGeometry relative="1" as="geometry">
                        <mxPoint x="1240" y="1510" as="targetPoint"/>
                    </mxGeometry>
                </mxCell>
                <mxCell id="1ungzyrmgM4HCY8xMzl8-65" value="" style="rounded=1;whiteSpace=wrap;html=1;" parent="1" vertex="1">
                    <mxGeometry x="80" y="1750" width="240" height="380" as="geometry"/>
                </mxCell>
                <mxCell id="1ungzyrmgM4HCY8xMzl8-66" value="Headers" style="rounded=0;whiteSpace=wrap;html=1;" parent="1" vertex="1">
                    <mxGeometry x="120" y="1780" width="160" height="40" as="geometry"/>
                </mxCell>
                <mxCell id="1ungzyrmgM4HCY8xMzl8-67" value="Params" style="rounded=0;whiteSpace=wrap;html=1;" parent="1" vertex="1">
                    <mxGeometry x="120" y="2060" width="160" height="40" as="geometry"/>
                </mxCell>
                <mxCell id="1ungzyrmgM4HCY8xMzl8-68" value="Body&lt;br&gt;{&lt;br&gt;id&lt;br&gt;name&lt;br&gt;document&lt;br&gt;}" style="rounded=0;whiteSpace=wrap;html=1;" parent="1" vertex="1">
                    <mxGeometry x="120" y="1830" width="160" height="220" as="geometry"/>
                </mxCell>
                <mxCell id="1ungzyrmgM4HCY8xMzl8-69" style="edgeStyle=orthogonalEdgeStyle;rounded=0;orthogonalLoop=1;jettySize=auto;html=1;exitX=1;exitY=0.25;exitDx=0;exitDy=0;entryX=0;entryY=0.5;entryDx=0;entryDy=0;strokeWidth=1;endArrow=open;endFill=0;endSize=15;" parent="1" source="1ungzyrmgM4HCY8xMzl8-70" target="1ungzyrmgM4HCY8xMzl8-75" edge="1">
                    <mxGeometry relative="1" as="geometry"/>
                </mxCell>
                <mxCell id="1ungzyrmgM4HCY8xMzl8-70" value="{&lt;br&gt;stageItem = repo.getStageById(id)&lt;br&gt;if(stageItem != null)&lt;br&gt;{&lt;br&gt;stagemodel = map&amp;lt;stage&amp;gt;(stage)&lt;br&gt;repo.createStage(id, stageModel)&lt;br&gt;stageReadDto = map&amp;lt;stageReadDto&amp;gt;(stageModel)&lt;br&gt;return getstagebyid(stageitem.id)&lt;br&gt;&lt;br&gt;stageUpdatedDto= map&amp;lt;stage&amp;gt;(stagemodel&amp;nbsp;)&lt;br&gt;stageUpdatedDto.event = Stage_Updated&lt;br&gt;messagebusclien.updateStage(stageUpdatedDto)&lt;br&gt;&lt;br&gt;}&lt;br&gt;else&lt;br&gt;return notFound&lt;br&gt;}" style="rounded=0;whiteSpace=wrap;html=1;align=left;" parent="1" vertex="1">
                    <mxGeometry x="400" y="1790" width="280" height="320" as="geometry"/>
                </mxCell>
                <mxCell id="1ungzyrmgM4HCY8xMzl8-71" value="" style="shape=flexArrow;endArrow=classic;startArrow=classic;html=1;rounded=0;" parent="1" edge="1">
                    <mxGeometry width="100" height="100" relative="1" as="geometry">
                        <mxPoint x="80" y="1719.9999999999998" as="sourcePoint"/>
                        <mxPoint x="320" y="1719.9999999999998" as="targetPoint"/>
                    </mxGeometry>
                </mxCell>
                <mxCell id="1ungzyrmgM4HCY8xMzl8-72" value="PUT UpdateStage" style="text;html=1;strokeColor=none;fillColor=none;align=center;verticalAlign=middle;whiteSpace=wrap;rounded=0;" parent="1" vertex="1">
                    <mxGeometry x="85" y="1670" width="220" height="30" as="geometry"/>
                </mxCell>
                <mxCell id="1ungzyrmgM4HCY8xMzl8-73" value="UpdateStage&lt;span style=&quot;text-align: left&quot;&gt;([fromBody] StageUpdateDto stage)&lt;/span&gt;" style="text;html=1;strokeColor=none;fillColor=none;align=center;verticalAlign=middle;whiteSpace=wrap;rounded=0;" parent="1" vertex="1">
                    <mxGeometry x="400" y="1760" width="290" height="30" as="geometry"/>
                </mxCell>
                <mxCell id="1ungzyrmgM4HCY8xMzl8-74" style="edgeStyle=orthogonalEdgeStyle;rounded=0;orthogonalLoop=1;jettySize=auto;html=1;entryX=0;entryY=0.5;entryDx=0;entryDy=0;strokeWidth=1;endArrow=open;endFill=0;endSize=15;" parent="1" source="1ungzyrmgM4HCY8xMzl8-75" target="1ungzyrmgM4HCY8xMzl8-77" edge="1">
                    <mxGeometry relative="1" as="geometry"/>
                </mxCell>
                <mxCell id="1ungzyrmgM4HCY8xMzl8-75" value="HTTP" style="rounded=0;whiteSpace=wrap;html=1;" parent="1" vertex="1">
                    <mxGeometry x="750" y="1840" width="120" height="60" as="geometry"/>
                </mxCell>
                <mxCell id="1ungzyrmgM4HCY8xMzl8-76" value="MongoDB Atlas" style="text;html=1;strokeColor=none;fillColor=none;align=center;verticalAlign=middle;whiteSpace=wrap;rounded=0;" parent="1" vertex="1">
                    <mxGeometry x="750" y="1910" width="120" height="30" as="geometry"/>
                </mxCell>
                <mxCell id="1ungzyrmgM4HCY8xMzl8-77" value="UpdateStage" style="rounded=0;whiteSpace=wrap;html=1;" parent="1" vertex="1">
                    <mxGeometry x="970" y="1840" width="180" height="60" as="geometry"/>
                </mxCell>
                <mxCell id="1ungzyrmgM4HCY8xMzl8-78" value="Actor" style="shape=umlActor;verticalLabelPosition=bottom;verticalAlign=top;html=1;outlineConnect=0;" parent="1" vertex="1">
                    <mxGeometry x="30" y="1670" width="30" height="60" as="geometry"/>
                </mxCell>
                <mxCell id="1ungzyrmgM4HCY8xMzl8-79" style="edgeStyle=orthogonalEdgeStyle;rounded=0;orthogonalLoop=1;jettySize=auto;html=1;exitX=1;exitY=0.25;exitDx=0;exitDy=0;entryX=0;entryY=0.5;entryDx=0;entryDy=0;strokeWidth=1;endArrow=open;endFill=0;endSize=15;" parent="1" target="1ungzyrmgM4HCY8xMzl8-81" edge="1">
                    <mxGeometry relative="1" as="geometry">
                        <mxPoint x="680" y="2050" as="sourcePoint"/>
                    </mxGeometry>
                </mxCell>
                <mxCell id="1ungzyrmgM4HCY8xMzl8-80" style="edgeStyle=orthogonalEdgeStyle;rounded=0;orthogonalLoop=1;jettySize=auto;html=1;entryX=0;entryY=0.5;entryDx=0;entryDy=0;strokeWidth=1;endArrow=open;endFill=0;endSize=15;" parent="1" source="1ungzyrmgM4HCY8xMzl8-81" target="1ungzyrmgM4HCY8xMzl8-83" edge="1">
                    <mxGeometry relative="1" as="geometry"/>
                </mxCell>
                <mxCell id="1ungzyrmgM4HCY8xMzl8-81" value="RabbitMQ" style="rounded=0;whiteSpace=wrap;html=1;" parent="1" vertex="1">
                    <mxGeometry x="750" y="2020" width="120" height="60" as="geometry"/>
                </mxCell>
                <mxCell id="1ungzyrmgM4HCY8xMzl8-83" value="UpdateStage" style="rounded=0;whiteSpace=wrap;html=1;" parent="1" vertex="1">
                    <mxGeometry x="970" y="2020" width="180" height="60" as="geometry"/>
                </mxCell>
                <mxCell id="1ungzyrmgM4HCY8xMzl8-84" value="" style="rounded=1;whiteSpace=wrap;html=1;" parent="1" vertex="1">
                    <mxGeometry x="80" y="2250" width="240" height="380" as="geometry"/>
                </mxCell>
                <mxCell id="1ungzyrmgM4HCY8xMzl8-85" value="Headers" style="rounded=0;whiteSpace=wrap;html=1;" parent="1" vertex="1">
                    <mxGeometry x="120" y="2280" width="160" height="40" as="geometry"/>
                </mxCell>
                <mxCell id="1ungzyrmgM4HCY8xMzl8-86" value="Params" style="rounded=0;whiteSpace=wrap;html=1;" parent="1" vertex="1">
                    <mxGeometry x="120" y="2560" width="160" height="40" as="geometry"/>
                </mxCell>
                <mxCell id="1ungzyrmgM4HCY8xMzl8-87" value="Body" style="rounded=0;whiteSpace=wrap;html=1;" parent="1" vertex="1">
                    <mxGeometry x="120" y="2330" width="160" height="220" as="geometry"/>
                </mxCell>
                <mxCell id="1ungzyrmgM4HCY8xMzl8-88" style="edgeStyle=orthogonalEdgeStyle;rounded=0;orthogonalLoop=1;jettySize=auto;html=1;exitX=1;exitY=0.25;exitDx=0;exitDy=0;entryX=0;entryY=0.5;entryDx=0;entryDy=0;strokeWidth=1;endArrow=open;endFill=0;endSize=15;" parent="1" target="1ungzyrmgM4HCY8xMzl8-94" edge="1">
                    <mxGeometry relative="1" as="geometry">
                        <mxPoint x="680" y="2580" as="sourcePoint"/>
                    </mxGeometry>
                </mxCell>
                <mxCell id="1ungzyrmgM4HCY8xMzl8-89" value="{&lt;br&gt;stageItem = repo.getStageById(id)&lt;br&gt;stageDeleteDto= map&amp;lt;stage&amp;gt;(stageItem&amp;nbsp;)&lt;br&gt;stageDeleteDto.event = Stage_Deleted&lt;br&gt;messagebusclien.deletestagebyid(stageUpdatedDto)&lt;br&gt;if(stageItem != null)&lt;br&gt;{&lt;br&gt;repo.deleteStage(stageitem.id)&lt;br&gt;return ok&lt;br&gt;}&lt;br&gt;else&lt;br&gt;return notFound&lt;br&gt;}" style="rounded=0;whiteSpace=wrap;html=1;align=left;" parent="1" vertex="1">
                    <mxGeometry x="400" y="2290" width="290" height="320" as="geometry"/>
                </mxCell>
                <mxCell id="1ungzyrmgM4HCY8xMzl8-90" value="" style="shape=flexArrow;endArrow=classic;startArrow=classic;html=1;rounded=0;" parent="1" edge="1">
                    <mxGeometry width="100" height="100" relative="1" as="geometry">
                        <mxPoint x="80" y="2220" as="sourcePoint"/>
                        <mxPoint x="320" y="2220" as="targetPoint"/>
                    </mxGeometry>
                </mxCell>
                <mxCell id="1ungzyrmgM4HCY8xMzl8-91" value="DELETE DeleteStage" style="text;html=1;strokeColor=none;fillColor=none;align=center;verticalAlign=middle;whiteSpace=wrap;rounded=0;" parent="1" vertex="1">
                    <mxGeometry x="85" y="2170" width="220" height="30" as="geometry"/>
                </mxCell>
                <mxCell id="1ungzyrmgM4HCY8xMzl8-92" value="CreateStage&lt;span style=&quot;text-align: left&quot;&gt;([fromBody] StageCreateDto stage)&lt;/span&gt;" style="text;html=1;strokeColor=none;fillColor=none;align=center;verticalAlign=middle;whiteSpace=wrap;rounded=0;" parent="1" vertex="1">
                    <mxGeometry x="400" y="2260" width="300" height="30" as="geometry"/>
                </mxCell>
                <mxCell id="1ungzyrmgM4HCY8xMzl8-93" style="edgeStyle=orthogonalEdgeStyle;rounded=0;orthogonalLoop=1;jettySize=auto;html=1;entryX=0;entryY=0.5;entryDx=0;entryDy=0;strokeWidth=1;endArrow=open;endFill=0;endSize=15;" parent="1" source="1ungzyrmgM4HCY8xMzl8-94" target="1ungzyrmgM4HCY8xMzl8-96" edge="1">
                    <mxGeometry relative="1" as="geometry"/>
                </mxCell>
                <mxCell id="1ungzyrmgM4HCY8xMzl8-94" value="HTTP" style="rounded=0;whiteSpace=wrap;html=1;" parent="1" vertex="1">
                    <mxGeometry x="760" y="2550" width="120" height="60" as="geometry"/>
                </mxCell>
                <mxCell id="1ungzyrmgM4HCY8xMzl8-95" value="MongoDB Atlas" style="text;html=1;strokeColor=none;fillColor=none;align=center;verticalAlign=middle;whiteSpace=wrap;rounded=0;" parent="1" vertex="1">
                    <mxGeometry x="760" y="2620" width="120" height="30" as="geometry"/>
                </mxCell>
                <mxCell id="1ungzyrmgM4HCY8xMzl8-96" value="DeleteStage" style="rounded=0;whiteSpace=wrap;html=1;" parent="1" vertex="1">
                    <mxGeometry x="980" y="2550" width="180" height="60" as="geometry"/>
                </mxCell>
                <mxCell id="1ungzyrmgM4HCY8xMzl8-97" value="Actor" style="shape=umlActor;verticalLabelPosition=bottom;verticalAlign=top;html=1;outlineConnect=0;" parent="1" vertex="1">
                    <mxGeometry x="30" y="2170" width="30" height="60" as="geometry"/>
                </mxCell>
                <mxCell id="1ungzyrmgM4HCY8xMzl8-98" style="edgeStyle=orthogonalEdgeStyle;rounded=0;orthogonalLoop=1;jettySize=auto;html=1;exitX=1;exitY=0.25;exitDx=0;exitDy=0;entryX=0;entryY=0.5;entryDx=0;entryDy=0;strokeWidth=1;endArrow=open;endFill=0;endSize=15;" parent="1" target="1ungzyrmgM4HCY8xMzl8-100" edge="1">
                    <mxGeometry relative="1" as="geometry">
                        <mxPoint x="690" y="2440" as="sourcePoint"/>
                    </mxGeometry>
                </mxCell>
                <mxCell id="1ungzyrmgM4HCY8xMzl8-99" style="edgeStyle=orthogonalEdgeStyle;rounded=0;orthogonalLoop=1;jettySize=auto;html=1;entryX=0;entryY=0.5;entryDx=0;entryDy=0;strokeWidth=1;endArrow=open;endFill=0;endSize=15;" parent="1" source="1ungzyrmgM4HCY8xMzl8-100" target="1ungzyrmgM4HCY8xMzl8-101" edge="1">
                    <mxGeometry relative="1" as="geometry"/>
                </mxCell>
                <mxCell id="1ungzyrmgM4HCY8xMzl8-100" value="RabbitMQ" style="rounded=0;whiteSpace=wrap;html=1;" parent="1" vertex="1">
                    <mxGeometry x="760" y="2410" width="120" height="60" as="geometry"/>
                </mxCell>
                <mxCell id="1ungzyrmgM4HCY8xMzl8-101" value="DeleteStage" style="rounded=0;whiteSpace=wrap;html=1;" parent="1" vertex="1">
                    <mxGeometry x="980" y="2410" width="180" height="60" as="geometry"/>
                </mxCell>
                <mxCell id="2" style="edgeStyle=orthogonalEdgeStyle;rounded=0;orthogonalLoop=1;jettySize=auto;html=1;exitX=1;exitY=0.25;exitDx=0;exitDy=0;entryX=0;entryY=0.5;entryDx=0;entryDy=0;strokeWidth=1;endArrow=open;endFill=0;endSize=15;" edge="1" parent="1" target="4">
                    <mxGeometry relative="1" as="geometry">
                        <mxPoint x="689" y="2330" as="sourcePoint"/>
                    </mxGeometry>
                </mxCell>
                <mxCell id="3" style="edgeStyle=orthogonalEdgeStyle;rounded=0;orthogonalLoop=1;jettySize=auto;html=1;entryX=0;entryY=0.5;entryDx=0;entryDy=0;strokeWidth=1;endArrow=open;endFill=0;endSize=15;" edge="1" parent="1" source="4" target="5">
                    <mxGeometry relative="1" as="geometry"/>
                </mxCell>
                <mxCell id="4" value="HTTP" style="rounded=0;whiteSpace=wrap;html=1;" vertex="1" parent="1">
                    <mxGeometry x="769" y="2300" width="120" height="60" as="geometry"/>
                </mxCell>
                <mxCell id="5" value="getStageById" style="rounded=0;whiteSpace=wrap;html=1;" vertex="1" parent="1">
                    <mxGeometry x="989" y="2300" width="180" height="60" as="geometry"/>
                </mxCell>
            </root>
        </mxGraphModel>
    </diagram>
</mxfile>